<svg xmlns="http://www.w3.org/2000/svg" xml:space="preserve" width="274" height="313" style="shape-rendering:geometricPrecision;text-rendering:geometricPrecision;image-rendering:optimizeQuality;fill-rule:evenodd;clip-rule:evenodd" viewBox="0 0 5.54 6.33"><path d="M0 .11h5.54v5.86c0 .2-.16.36-.36.36H.62c-.34 0-.62-.28-.62-.62V.11z" style="fill:#fefefe"/><path d="M.88 0C.58 0 .33.12.33.52L.32 5.46c0 .32.14.59.46.6.33 0 4.07.02 4.19.02.12 0 .26-.03.26-.25V.87c0-.28-.35-.27-.35-.02l-.02 4.77c0 .05-.04.11-.09.11L1 5.69c-.22 0-.23-.39-.01-.39l3.42.02c.11.01.22-.04.23-.22L4.68.35c0-.3-.13-.35-.31-.35H.88zm.49 3.05c-.35.09.14.87.81 1.01.65.14 1.15-.25 1.35-.65.06-.13.12-.29-.02-.36-.2-.1-.34.03-.36.07-.32.67-1.11.72-1.44.08-.05-.1-.11-.22-.34-.15zm1.36-1.26h1.23c.13 0 .31.14.31.31 0 .17-.14.31-.31.31H2.73c-.17 0-.31-.14-.31-.31 0-.17.18-.31.31-.31zm-1.27-.02c.17 0 .31.14.31.31 0 .17-.14.3-.31.3-.17 0-.31-.13-.31-.3 0-.17.14-.31.31-.31z" style="fill:#639"/></svg>
