<svg xmlns="http://www.w3.org/2000/svg" xml:space="preserve" style="shape-rendering:geometricPrecision;text-rendering:geometricPrecision;image-rendering:optimizeQuality;fill-rule:evenodd;clip-rule:evenodd" viewBox="0 0 403.6 403.85"><defs><style>.fil1{fill:#555;fill-rule:nonzero}</style></defs><g id="Layer_x0020_1"><ellipse cx="203.51" cy="202.78" rx="176.65" ry="179.21" style="fill:#fefefe;stroke:#2b2a29;stroke-width:.45;stroke-miterlimit:22.9256"/><g id="_678995160"><path d="M183.72.49C144.69 4.28 108.66 18.66 77.05 43c-15.4 11.85-35.39 34.13-46.93 52.3-4.98 7.82-14.69 27.73-18.17 37.21-3.87 10.59-8.06 26.87-10.11 39.43-2.45 15.41-2.45 44.64 0 60.05 3.55 21.8 9.16 39.34 18.72 58.86 10.43 21.25 21.26 36.34 38.64 53.8 17.46 17.39 32.55 28.21 53.8 38.64 19.52 9.56 37.06 15.17 58.86 18.72 15.41 2.45 44.64 2.45 60.05 0 21.81-3.55 39.35-9.16 58.86-18.72 21.26-10.43 36.35-21.25 53.81-38.64 17.38-17.46 28.2-32.55 38.63-53.8 6.96-14.14 10.43-23.39 14.23-37.61 4.97-18.96 6.16-29.31 6.16-51.28 0-21.96-1.19-32.31-6.16-51.27-3.8-14.23-7.27-23.47-14.23-37.61-10.43-21.26-21.25-36.35-38.63-53.81-17.46-17.38-32.55-28.2-53.81-38.63-19.43-9.56-37.45-15.25-58.46-18.57C220.69.25 194.78-.62 183.72.49zm41.08 32.08c17.94 2.37 34.76 7.43 51.75 15.72 17.86 8.69 30.66 17.94 45.91 33.11 15.17 15.24 24.41 28.04 33.1 45.9 11.85 24.26 17.07 47.25 17.07 74.66 0 27.42-5.22 50.41-17.07 74.67-8.69 17.85-17.93 30.65-33.1 45.9-15.25 15.17-28.05 24.42-45.91 33.11-24.25 11.85-47.25 17.06-74.66 17.06-27.42 0-50.41-5.21-74.67-17.06-17.85-8.69-30.65-17.94-45.9-33.11-15.17-15.25-24.41-28.05-33.1-45.9-11.86-24.26-17.07-47.25-17.07-74.67 0-27.41 5.21-50.4 17.07-74.66 8.69-17.86 17.93-30.66 33.1-45.9 15.25-15.17 28.05-24.42 45.9-33.11 30.66-14.93 63.13-20.15 97.58-15.72z" class="fil1"/><path d="M194.94 108.42c-3.95 2.05-7.04 6-7.98 10.58-.56 2.53-.87 15.49-.87 35.16v31.13l-34.29.24-34.29.24-3.09 2.45c-4.34 3.55-6 6.79-6.08 12.08-.08 6.32 2.77 11.07 8.38 13.83l4.1 2.05h65.19l.23 33.35.24 33.42 2.13 3.71c2.53 4.19 8.54 7.74 13.28 7.74s10.74-3.55 13.27-7.74l2.13-3.71.24-33.42.24-33.35h65.18l4.11-2.05c5.61-2.76 8.45-7.51 8.37-13.83-.08-5.29-1.73-8.53-6.08-12.08l-3.08-2.45-34.21-.24-34.29-.24-.24-33.34c-.24-31.52-.32-33.5-1.82-36.42-.87-1.74-2.92-4.19-4.58-5.53-2.53-2.06-3.79-2.45-8.29-2.69-3.8-.16-6.01.16-7.91 1.11h.01z" class="fil1"/></g></g></svg>