<svg xmlns="http://www.w3.org/2000/svg" xml:space="preserve" style="shape-rendering:geometricPrecision;text-rendering:geometricPrecision;image-rendering:optimizeQuality;fill-rule:evenodd;clip-rule:evenodd" viewBox="0 0 222.06 222.28"><path d="M65.15 51.42c6.66 3.05 36.89 38.34 45.87 44.56 8.93-6.05 38.98-41.17 45.97-44.64l14.02 14.22-45.1 45.78 44.86 45.7-13.88 13.79c-6.63-3.05-37.08-38.67-45.87-44.59-10.02 7.21-38.85 41.11-45.92 44.65L51.05 156.7l45.11-45.83-44.83-45.69 13.82-13.76zm156.14 71.65C228.89 58.51 179.61 6.76 123.91.71 58.43-6.41 7.29 41.26.76 98.35c-7.45 65.12 41.23 117.01 97.27 123.19 66.54 7.34 116.47-40.76 123.26-98.47z" style="fill:#ff0020"/><path d="m51.33 65.18 44.83 45.69-45.11 45.83 14.05 14.19c7.07-3.54 35.9-37.44 45.92-44.65 8.79 5.92 39.24 41.54 45.87 44.59l13.88-13.79-44.86-45.7 45.1-45.78-14.02-14.22c-6.99 3.47-37.04 38.59-45.97 44.64-8.98-6.22-39.21-41.51-45.87-44.56L51.33 65.18z" style="fill:#fefefe"/></svg>