<svg xmlns="http://www.w3.org/2000/svg" xml:space="preserve" style="shape-rendering:geometricPrecision;text-rendering:geometricPrecision;image-rendering:optimizeQuality;fill-rule:evenodd;clip-rule:evenodd" viewBox="0 0 512 724.11"><defs><style>.fil0{fill:#639;fill-rule:nonzero}</style></defs><g id="Layer_x0020_1"><g id="_637996264"><path d="M201.27 532.66c-11.52 11.52-30.16 11.52-41.68 0L13.77 386.84c-11.52-11.47-11.52-30.16 0-41.68 11.52-11.47 30.16-11.47 41.68 0l145.82 145.82c11.52 11.52 11.52 30.16 0 41.68z" class="fil0"/><path d="M159.74 531.79c11.52 11.52 30.16 11.52 41.68 0l296.81-298.65c11.52-11.52 11.52-30.16 0-41.68-11.52-11.47-30.16-11.47-41.68 0L159.74 490.11c-11.52 11.47-11.52 30.16 0 41.68z" class="fil0"/></g></g></svg>