<svg xmlns="http://www.w3.org/2000/svg" xml:space="preserve" style="shape-rendering:geometricPrecision;text-rendering:geometricPrecision;image-rendering:optimizeQuality;fill-rule:evenodd;clip-rule:evenodd" viewBox="0 0 485.61 121.4"><path d="M242.81 0c-33.39 0-60.71 27.32-60.71 60.7 0 33.39 27.32 60.7 60.71 60.7 33.38 0 60.7-27.31 60.7-60.7 0-33.38-27.32-60.7-60.7-60.7zm182.1 0c-33.38 0-60.7 27.32-60.7 60.7 0 33.39 27.32 60.7 60.7 60.7 33.39 0 60.7-27.31 60.7-60.7 0-33.38-27.31-60.7-60.7-60.7zM60.7 0C27.32 0 0 27.32 0 60.7c0 33.39 27.32 60.7 60.7 60.7 33.39 0 60.7-27.31 60.7-60.7C121.4 27.32 94.09 0 60.7 0z" style="fill:#777;fill-rule:nonzero"/></svg>